<?xml version="1.0" encoding="UTF-8" standalone="no"?>
<!-- Created with Inkscape (http://www.inkscape.org/) -->

<svg
   xmlns:osb="http://www.openswatchbook.org/uri/2009/osb"
   xmlns:dc="http://purl.org/dc/elements/1.1/"
   xmlns:cc="http://creativecommons.org/ns#"
   xmlns:rdf="http://www.w3.org/1999/02/22-rdf-syntax-ns#"
   xmlns:svg="http://www.w3.org/2000/svg"
   xmlns="http://www.w3.org/2000/svg"
   xmlns:sodipodi="http://sodipodi.sourceforge.net/DTD/sodipodi-0.dtd"
   xmlns:inkscape="http://www.inkscape.org/namespaces/inkscape"
   width="744.09448819"
   height="1052.3622047"
   id="svg8805"
   version="1.1"
   inkscape:version="0.91 r13725"
   sodipodi:docname="1LFO_v2-1.0-4HP-panel.svg">
  <defs
     id="defs8807">
    <linearGradient
       id="linearGradient5359"
       osb:paint="solid">
      <stop
         style="stop-color:#ff0000;stop-opacity:1;"
         offset="0"
         id="stop5361" />
    </linearGradient>
  </defs>
  <sodipodi:namedview
     id="base"
     pagecolor="#ffffff"
     bordercolor="#666666"
     borderopacity="1.0"
     inkscape:pageopacity="0.0"
     inkscape:pageshadow="2"
     inkscape:zoom="2.5656566"
     inkscape:cx="533.55844"
     inkscape:cy="317.25"
     inkscape:document-units="px"
     inkscape:current-layer="layer4"
     showgrid="true"
     inkscape:snap-center="false"
     inkscape:snap-object-midpoints="true"
     inkscape:snap-to-guides="false"
     inkscape:snap-grids="true"
     inkscape:snap-midpoints="false"
     inkscape:window-width="2140"
     inkscape:window-height="1333"
     inkscape:window-x="191"
     inkscape:window-y="11"
     inkscape:window-maximized="0"
     inkscape:snap-nodes="true"
     inkscape:snap-bbox="false"
     inkscape:snap-bbox-midpoints="true"
     inkscape:snap-global="true"
     gridtolerance="4">
    <inkscape:grid
       type="xygrid"
       id="grid8813"
       empspacing="4"
       visible="true"
       enabled="true"
       snapvisiblegridlinesonly="false"
       units="in"
       spacingx="0.025in"
       spacingy="0.025in"
       color="#f700f9"
       opacity="0.1254902"
       dotted="true" />
  </sodipodi:namedview>
  <metadata
     id="metadata8810">
    <rdf:RDF>
      <cc:Work
         rdf:about="">
        <dc:format>image/svg+xml</dc:format>
        <dc:type
           rdf:resource="http://purl.org/dc/dcmitype/StillImage" />
        <dc:title />
      </cc:Work>
    </rdf:RDF>
  </metadata>
  <g
     inkscape:label="4HP panel"
     inkscape:groupmode="layer"
     id="layer1"
     style="display:inline">
    <g
       id="g5429"
       style="stroke-width:0.03543307;stroke-miterlimit:4;stroke-dasharray:none">
      <rect
         style="fill:none;stroke:#0000ff;stroke-width:0.03543307;stroke-miterlimit:4;stroke-dasharray:none;stroke-opacity:1"
         id="rect3093"
         width="71.743401"
         height="454.5"
         x="396.1283"
         y="507.86218" />
      <circle
         id="path3097"
         style="fill:none;stroke:#0000ff;stroke-width:0.03543307;stroke-miterlimit:4;stroke-dasharray:none;stroke-opacity:1"
         cx="422.96008"
         cy="519.17468"
         r="5.625" />
      <circle
         style="fill:none;stroke:#0000ff;stroke-width:0.03543307;stroke-miterlimit:4;stroke-dasharray:none;stroke-opacity:1"
         id="path3099"
         cx="422.96008"
         cy="951.17468"
         r="5.625" />
    </g>
  </g>
  <g
     inkscape:groupmode="layer"
     id="layer3"
     inkscape:label="FP LASER HOLES"
     style="display:inline">
    <text
       xml:space="preserve"
       style="font-style:normal;font-variant:normal;font-weight:normal;font-stretch:normal;font-size:20px;line-height:125%;font-family:'Averia Sans';-inkscape-font-specification:'Averia Sans';letter-spacing:0px;word-spacing:0px;fill:#000000;fill-opacity:1;stroke:none"
       x="352.21191"
       y="792.32202"
       id="text9904"
       sodipodi:linespacing="125%"><tspan
         sodipodi:role="line"
         id="tspan9906"
         x="352.21191"
         y="792.32202" /></text>
    <ellipse
       ry="10.673117"
       rx="10.673118"
       cy="890.36218"
       cx="432"
       id="ellipse4420"
       style="display:inline;fill:none;stroke:#0000ff;stroke-width:0.03543307;stroke-miterlimit:4;stroke-dasharray:none;stroke-opacity:1" />
    <ellipse
       ry="12.247839"
       rx="12.24784"
       cy="840.86218"
       cx="432"
       id="ellipse4422"
       style="display:inline;fill:none;stroke:#0000ff;stroke-width:0.03543307;stroke-miterlimit:4;stroke-dasharray:none;stroke-opacity:1" />
    <ellipse
       style="display:inline;fill:none;stroke:#0000ff;stroke-width:0.03543307;stroke-miterlimit:4;stroke-dasharray:none;stroke-opacity:1"
       id="ellipse5434"
       cx="432"
       cy="777.86218"
       rx="10.673118"
       ry="10.673117" />
    <ellipse
       style="display:inline;fill:none;stroke:#0000ff;stroke-width:0.03543307;stroke-miterlimit:4;stroke-dasharray:none;stroke-opacity:1"
       id="ellipse5436"
       cx="432"
       cy="728.36218"
       rx="12.24784"
       ry="12.247839" />
    <ellipse
       ry="12.247839"
       rx="12.24784"
       cy="638.36218"
       cx="432"
       id="ellipse5438"
       style="display:inline;fill:none;stroke:#0000ff;stroke-width:0.03543307;stroke-miterlimit:4;stroke-dasharray:none;stroke-opacity:1" />
    <ellipse
       style="display:inline;fill:none;stroke:#0000ff;stroke-width:0.03543307;stroke-miterlimit:4;stroke-dasharray:none;stroke-opacity:1"
       id="ellipse5442"
       cx="432"
       cy="575.36218"
       rx="8.748456"
       ry="8.748457" />
    <circle
       style="display:inline;fill:none;stroke:#0000ff;stroke-width:0.03543307;stroke-miterlimit:4;stroke-dasharray:none;stroke-opacity:1"
       id="ellipse5588"
       cx="432"
       cy="692.36218"
       r="10.478352" />
  </g>
  <g
     inkscape:groupmode="layer"
     id="layer4"
     inkscape:label="Engravings"
     style="display:inline">
    <text
       xml:space="preserve"
       style="font-style:normal;font-variant:normal;font-weight:normal;font-stretch:normal;font-size:20px;line-height:125%;font-family:'Averia Sans';-inkscape-font-specification:'Averia Sans';letter-spacing:0px;word-spacing:0px;fill:#000000;fill-opacity:1;stroke:#ff0000;stroke-width:0.03543307;stroke-miterlimit:4;stroke-dasharray:none;stroke-opacity:1"
       x="345.08755"
       y="796.32947"
       id="text9913"
       sodipodi:linespacing="125%"><tspan
         sodipodi:role="line"
         id="tspan9915"
         x="345.08755"
         y="796.32947" /></text>
    <text
       xml:space="preserve"
       style="font-style:normal;font-variant:normal;font-weight:normal;font-stretch:normal;font-size:12px;line-height:125%;font-family:'C64 User';-inkscape-font-specification:'C64 User';letter-spacing:0px;word-spacing:0px;fill:#000000;fill-opacity:1;stroke:none"
       x="499.66638"
       y="626.3988"
       id="text3966"
       sodipodi:linespacing="125%"><tspan
         sodipodi:role="line"
         id="tspan3968"
         x="499.66638"
         y="626.3988" /></text>
    <path
       style="fill:none;stroke:#ff0000;stroke-width:0.03543307;stroke-miterlimit:4;stroke-dasharray:none;stroke-opacity:1"
       d="m 400.5,935.36218 63,0"
       id="path11004"
       inkscape:connector-curvature="0" />
    <path
       style="fill:none;stroke:#ff0000;stroke-width:0.03543307;stroke-miterlimit:4;stroke-dasharray:none;stroke-opacity:1"
       d="m 400.5,534.86218 10.79143,0"
       id="path11006"
       inkscape:connector-curvature="0" />
    <text
       xml:space="preserve"
       style="font-style:normal;font-variant:normal;font-weight:normal;font-stretch:normal;font-size:15px;line-height:125%;font-family:sans-serif;-inkscape-font-specification:sans-serif;letter-spacing:0px;word-spacing:0px;fill:#000000;fill-opacity:1;stroke:none;stroke-width:1px;stroke-linecap:butt;stroke-linejoin:miter;stroke-opacity:1"
       x="371.78259"
       y="712.60486"
       id="text4491"
       sodipodi:linespacing="125%"><tspan
         sodipodi:role="line"
         id="tspan4493"
         x="371.78259"
         y="712.60486" /></text>
    <path
       style="fill:none;fill-rule:evenodd;stroke:#ff0000;stroke-width:0.03543307;stroke-linecap:butt;stroke-linejoin:miter;stroke-miterlimit:4;stroke-dasharray:none;stroke-opacity:1"
       d="m 413.9329,863.38705 36,0 0,-9 z"
       id="path4564"
       inkscape:connector-curvature="0" />
    <text
       xml:space="preserve"
       style="font-style:normal;font-variant:normal;font-weight:normal;font-stretch:normal;font-size:15px;line-height:125%;font-family:sans-serif;-inkscape-font-specification:sans-serif;letter-spacing:0px;word-spacing:0px;fill:#000000;fill-opacity:1;stroke:none;stroke-width:1px;stroke-linecap:butt;stroke-linejoin:miter;stroke-opacity:1"
       x="376.28259"
       y="730.60486"
       id="text4568"
       sodipodi:linespacing="125%"><tspan
         sodipodi:role="line"
         id="tspan4570"
         x="376.28259"
         y="730.60486" /></text>
    <path
       inkscape:connector-curvature="0"
       id="path5444"
       d="m 413.9329,750.88705 36,0 0,-9 z"
       style="fill:none;fill-rule:evenodd;stroke:#ff0000;stroke-width:0.03543307;stroke-linecap:butt;stroke-linejoin:miter;stroke-miterlimit:4;stroke-dasharray:none;stroke-opacity:1" />
    <g
       style="font-style:normal;font-variant:normal;font-weight:normal;font-stretch:normal;font-size:17.5px;line-height:125%;font-family:sans-serif;-inkscape-font-specification:sans-serif;letter-spacing:0px;word-spacing:0px;fill:none;fill-opacity:1;stroke:#ff0000;stroke-width:0.35433071;stroke-linecap:butt;stroke-linejoin:miter;stroke-miterlimit:4;stroke-dasharray:none;stroke-opacity:1"
       id="text5446"
       transform="translate(84.15018,-5.9677124)">
      <path
         d="m 411.50314,550.25604 2.81983,0 0,-9.73266 -3.06763,0.61523 0,-1.57226 3.05054,-0.61524 1.72607,0 0,11.30493 2.81983,0 0,1.45264 -7.34864,0 0,-1.45264 z"
         style="stroke-width:0.35433071;stroke-miterlimit:4;stroke-dasharray:none"
         id="path5494"
         inkscape:connector-curvature="0" />
      <path
         d="m 422.19284,538.95111 1.72607,0 0,11.30493 6.21216,0 0,1.45264 -7.93823,0 0,-12.75757 z"
         style="stroke-width:0.35433071;stroke-miterlimit:4;stroke-dasharray:none"
         id="path5496"
         inkscape:connector-curvature="0" />
      <path
         d="m 431.93405,538.95111 7.33154,0 0,1.45264 -5.60546,0 0,3.75976 5.05859,0 0,1.45264 -5.05859,0 0,6.09253 -1.72608,0 0,-12.75757 z"
         style="stroke-width:0.35433071;stroke-miterlimit:4;stroke-dasharray:none"
         id="path5498"
         inkscape:connector-curvature="0" />
      <path
         d="m 447.1611,540.12177 q -1.87988,0 -2.99072,1.40136 -1.1023,1.40137 -1.1023,3.81958 0,2.40967 1.1023,3.81104 1.11084,1.40136 2.99072,1.40136 1.87989,0 2.97364,-1.40136 1.10229,-1.40137 1.10229,-3.81104 0,-2.41821 -1.10229,-3.81958 -1.09375,-1.40136 -2.97364,-1.40136 z m 0,-1.40137 q 2.68311,0 4.28955,1.80298 1.60645,1.79443 1.60645,4.81933 0,3.01636 -1.60645,4.81934 -1.60644,1.79443 -4.28955,1.79443 -2.69165,0 -4.30664,-1.79443 -1.60644,-1.79444 -1.60644,-4.81934 0,-3.0249 1.60644,-4.81933 1.61499,-1.80298 4.30664,-1.80298 z"
         style="stroke-width:0.35433071;stroke-miterlimit:4;stroke-dasharray:none"
         id="path5500"
         inkscape:connector-curvature="0" />
    </g>
    <text
       xml:space="preserve"
       style="font-style:normal;font-weight:normal;font-size:15px;line-height:125%;font-family:sans-serif;letter-spacing:0px;word-spacing:0px;fill:#000000;fill-opacity:1;stroke:none;stroke-width:1px;stroke-linecap:butt;stroke-linejoin:miter;stroke-opacity:1"
       x="267.75"
       y="660.86218"
       id="text5450"
       sodipodi:linespacing="125%"><tspan
         sodipodi:role="line"
         id="tspan5452"
         x="267.75"
         y="660.86218" /></text>
    <g
       style="font-style:normal;font-variant:normal;font-weight:normal;font-stretch:normal;font-size:12.5px;line-height:125%;font-family:sans-serif;-inkscape-font-specification:sans-serif;letter-spacing:0px;word-spacing:0px;fill:none;fill-opacity:1;stroke:#ff0000;stroke-width:0.35433072;stroke-linecap:butt;stroke-linejoin:miter;stroke-miterlimit:4;stroke-dasharray:none;stroke-opacity:1"
       id="text5454"
       transform="translate(58.51456,0.83770762)">
      <path
         d="m 424.06393,595.62677 q -0.1892,-0.10986 -0.41503,-0.15869 -0.21973,-0.0549 -0.48829,-0.0549 -0.95214,0 -1.46484,0.62256 -0.50659,0.61645 -0.50659,1.77612 l 0,3.60107 -1.12915,0 0,-6.83593 1.12915,0 0,1.06201 q 0.354,-0.62256 0.92163,-0.92163 0.56763,-0.30518 1.37939,-0.30518 0.11597,0 0.25635,0.0183 0.14038,0.0122 0.31128,0.0427 l 0.006,1.15356 z"
         style="stroke-width:0.35433072;stroke-miterlimit:4;stroke-dasharray:none"
         id="path5503"
         inkscape:connector-curvature="0" />
      <path
         d="m 428.36081,597.97662 q -1.36108,0 -1.88599,0.31128 -0.5249,0.31128 -0.5249,1.06201 0,0.59815 0.39063,0.95215 0.39672,0.3479 1.07421,0.3479 0.93384,0 1.49537,-0.65918 0.56762,-0.66528 0.56762,-1.76391 l 0,-0.25025 -1.11694,0 z m 2.23999,-0.46386 0,3.90014 -1.12305,0 0,-1.03759 q -0.38452,0.62255 -0.95825,0.92163 -0.57373,0.29296 -1.40381,0.29296 -1.0498,0 -1.67236,-0.58593 -0.61646,-0.59204 -0.61646,-1.58081 0,-1.15357 0.76905,-1.73951 0.77514,-0.58593 2.30713,-0.58593 l 1.5747,0 0,-0.10987 q 0,-0.77514 -0.51269,-1.19629 -0.50659,-0.42724 -1.42823,-0.42724 -0.58593,0 -1.14135,0.14038 -0.55542,0.14038 -1.06812,0.42114 l 0,-1.0376 q 0.61646,-0.23803 1.19629,-0.354 0.57984,-0.12207 1.12915,-0.12207 1.48316,0 2.21558,0.76904 0.73242,0.76905 0.73242,2.33155 z"
         style="stroke-width:0.35433072;stroke-miterlimit:4;stroke-dasharray:none"
         id="path5505"
         inkscape:connector-curvature="0" />
      <path
         d="m 434.05539,592.63605 0,1.94092 2.31323,0 0,0.8728 -2.31323,0 0,3.71094 q 0,0.83618 0.22583,1.07421 0.23193,0.23804 0.93384,0.23804 l 1.15356,0 0,0.93994 -1.15356,0 q -1.30005,0 -1.79444,-0.48217 -0.49438,-0.48829 -0.49438,-1.77002 l 0,-3.71094 -0.82398,0 0,-0.8728 0.82398,0 0,-1.94092 1.12915,0 z"
         style="stroke-width:0.35433072;stroke-miterlimit:4;stroke-dasharray:none"
         id="path5507"
         inkscape:connector-curvature="0" />
      <path
         d="m 443.69894,597.71417 0,0.54932 -5.16357,0 q 0.0732,1.15967 0.6958,1.77002 0.62866,0.60425 1.74561,0.60425 0.64697,0 1.25122,-0.1587 0.61035,-0.15869 1.20849,-0.47607 l 0,1.06201 q -0.60425,0.25635 -1.23901,0.39063 -0.63477,0.13427 -1.28784,0.13427 -1.63574,0 -2.594,-0.95214 -0.95215,-0.95215 -0.95215,-2.57569 0,-1.67846 0.90333,-2.66113 0.90942,-0.98877 2.4475,-0.98877 1.3794,0 2.17896,0.89111 0.80566,0.88501 0.80566,2.41089 z m -1.12304,-0.32959 q -0.0122,-0.92163 -0.5188,-1.47094 -0.50049,-0.54932 -1.33057,-0.54932 -0.93994,0 -1.50757,0.531 -0.56152,0.53101 -0.64697,1.49537 l 4.00391,-0.006 z"
         style="stroke-width:0.35433072;stroke-miterlimit:4;stroke-dasharray:none"
         id="path5509"
         inkscape:connector-curvature="0" />
    </g>
    <g
       id="g5470"
       style="stroke:#ff0000;stroke-width:0.04091458;stroke-miterlimit:4;stroke-dasharray:none;stroke-opacity:1"
       transform="matrix(1,0,0,0.75000004,0.20457293,241.71552)">
      <path
         inkscape:connector-curvature="0"
         id="path5460"
         d="m 414,750.86218 9,-9 18,18 9,-9 0,0 z"
         style="fill:none;fill-rule:evenodd;stroke:#ff0000;stroke-width:0.04091458;stroke-linecap:butt;stroke-linejoin:miter;stroke-miterlimit:4;stroke-dasharray:none;stroke-opacity:1" />
      <path
         inkscape:connector-curvature="0"
         id="path5462"
         d="m 409.5,750.86218 4.5,0"
         style="fill:none;fill-rule:evenodd;stroke:#ff0000;stroke-width:0.04091458;stroke-linecap:butt;stroke-linejoin:miter;stroke-miterlimit:4;stroke-dasharray:none;stroke-opacity:1" />
      <path
         inkscape:connector-curvature="0"
         id="path5464"
         d="m 454.5,750.86218 -4.5,0"
         style="fill:none;fill-rule:evenodd;stroke:#ff0000;stroke-width:0.04091458;stroke-linecap:butt;stroke-linejoin:miter;stroke-miterlimit:4;stroke-dasharray:none;stroke-opacity:1" />
      <path
         inkscape:connector-curvature="0"
         id="path5466"
         d="m 454.5,746.36218 -4.5,4.5"
         style="fill:none;fill-rule:evenodd;stroke:#ff0000;stroke-width:0.04091458;stroke-linecap:butt;stroke-linejoin:miter;stroke-miterlimit:4;stroke-dasharray:none;stroke-opacity:1" />
      <path
         inkscape:connector-curvature="0"
         id="path5468"
         d="m 409.5,755.36218 4.5,-4.5"
         style="fill:none;fill-rule:evenodd;stroke:#ff0000;stroke-width:0.04091458;stroke-linecap:butt;stroke-linejoin:miter;stroke-miterlimit:4;stroke-dasharray:none;stroke-opacity:1" />
    </g>
    <path
       style="fill:none;fill-rule:evenodd;stroke:#ff0000;stroke-width:0.03543307;stroke-linecap:butt;stroke-linejoin:miter;stroke-miterlimit:4;stroke-dasharray:none;stroke-opacity:1"
       d="m 414,728.36218 -9,0 0,76.5 4.5,0"
       id="path5537"
       inkscape:connector-curvature="0" />
    <path
       inkscape:connector-curvature="0"
       id="path5539"
       d="m 414.08858,840.86218 -9,0 0,76.5 4.5,0"
       style="fill:none;fill-rule:evenodd;stroke:#ff0000;stroke-width:0.03543307;stroke-linecap:butt;stroke-linejoin:miter;stroke-miterlimit:4;stroke-dasharray:none;stroke-opacity:1" />
    <g
       id="g5549"
       transform="translate(234.07593,270)"
       style="stroke-width:0.03543307;stroke-miterlimit:4;stroke-dasharray:none">
      <path
         transform="matrix(0,1,-1,0,0,0)"
         sodipodi:open="true"
         d="m 669.86628,-215.92407 a 4.4958982,8.4536753 0 0 1 4.4959,-8.45368 4.4958982,8.4536753 0 0 1 4.4959,8.45368"
         sodipodi:end="0"
         sodipodi:start="3.1415927"
         sodipodi:ry="8.4536753"
         sodipodi:rx="4.4958982"
         sodipodi:cy="-215.92407"
         sodipodi:cx="674.36218"
         sodipodi:type="arc"
         id="path5541"
         style="fill:none;fill-opacity:1;stroke:#ff0000;stroke-width:0.03543307;stroke-miterlimit:4;stroke-dasharray:none;stroke-opacity:1" />
      <path
         style="fill:none;fill-opacity:1;stroke:#ff0000;stroke-width:0.03543307;stroke-miterlimit:4;stroke-dasharray:none;stroke-opacity:1"
         id="path5543"
         sodipodi:type="arc"
         sodipodi:cx="683.354"
         sodipodi:cy="-215.92407"
         sodipodi:rx="4.4958982"
         sodipodi:ry="8.4536753"
         sodipodi:start="3.1415927"
         sodipodi:end="0"
         d="m 678.85811,-215.92407 a 4.4958982,8.4536753 0 0 1 4.49589,-8.45368 4.4958982,8.4536753 0 0 1 4.4959,8.45368"
         sodipodi:open="true"
         transform="matrix(0,1,-1,0,0,0)" />
      <path
         inkscape:connector-curvature="0"
         id="path5545"
         d="m 215.94355,669.854 0,18.00818"
         style="fill:none;fill-rule:evenodd;stroke:#ff0000;stroke-width:0.03543307;stroke-linecap:butt;stroke-linejoin:miter;stroke-miterlimit:4;stroke-dasharray:none;stroke-opacity:1" />
      <path
         inkscape:connector-curvature="0"
         id="path5547"
         d="m 207.10181,687.86218 0,-18.00818 8.84174,6.75306"
         style="fill:none;fill-rule:evenodd;stroke:#ff0000;stroke-width:0.03543307;stroke-linecap:butt;stroke-linejoin:miter;stroke-miterlimit:4;stroke-dasharray:none;stroke-opacity:1" />
    </g>
    <g
       id="g5488"
       transform="translate(-76.5,4e-5)"
       style="fill:none;stroke:#ff0000;stroke-width:0.03543307;stroke-miterlimit:4;stroke-dasharray:none;stroke-opacity:1">
      <path
         inkscape:connector-curvature="0"
         id="path5484"
         d="m 486,917.36218 45,0"
         style="fill:none;fill-rule:evenodd;stroke:#ff0000;stroke-width:0.03543307;stroke-linecap:butt;stroke-linejoin:miter;stroke-miterlimit:4;stroke-dasharray:none;stroke-opacity:1" />
      <path
         inkscape:connector-curvature="0"
         id="path5486"
         d="m 486,924.11218 13.5,0 0,-13.5 18,0 0,13.5 13.5,0"
         style="fill:none;fill-rule:evenodd;stroke:#ff0000;stroke-width:0.03543307;stroke-linecap:butt;stroke-linejoin:miter;stroke-miterlimit:4;stroke-dasharray:none;stroke-opacity:1" />
    </g>
    <path
       style="fill:none;fill-rule:evenodd;stroke:#ff0000;stroke-width:0.03543307;stroke-linecap:butt;stroke-linejoin:miter;stroke-opacity:1;stroke-miterlimit:4;stroke-dasharray:none"
       d="m 432,678.86218 0,-22.5"
       id="path5598"
       inkscape:connector-curvature="0" />
    <g
       style="font-style:normal;font-variant:normal;font-weight:normal;font-stretch:normal;font-size:20px;line-height:125%;font-family:'My Underwood';-inkscape-font-specification:'My Underwood';letter-spacing:0px;word-spacing:0px;fill:#000000;fill-opacity:1;stroke:none;stroke-width:0.03543307;stroke-linecap:butt;stroke-linejoin:miter;stroke-opacity:1;stroke-miterlimit:4;stroke-dasharray:none"
       id="text6440">
      <path
         d="m 413.86841,530.71494 q 0.98,-0.12 1.84,-0.26 0.88,-0.16 1.74,-0.26 0.88,-0.12 1.8,-0.18 0.94,-0.06 2.04,0 -0.1,0.52 -0.3,0.98 -0.2,0.46 -0.72,0.6 -0.32,-0.26 -0.6,-0.28 -0.26,-0.04 -0.5,0.04 -0.24,0.08 -0.48,0.22 -0.24,0.12 -0.5,0.18 0.08,0.26 0,0.5 -0.06,0.24 -0.2,0.48 -0.12,0.22 -0.26,0.42 -0.12,0.2 -0.16,0.4 -0.02,0.18 0.1,0.34 0.14,0.16 0.52,0.28 -0.12,0.26 -0.3,0.52 -0.16,0.24 -0.04,0.5 l 0.34,0.52 -0.68,0.52 q 0.26,0.78 0.36,1.6 0.12,0.8 0.26,1.52 0.14,0.7 0.42,1.26 0.28,0.54 0.86,0.8 0.52,-0.06 0.92,-0.12 0.4,-0.08 0.78,-0.14 0.38,-0.06 0.74,-0.1 0.38,-0.06 0.84,-0.12 0.18,-0.18 0.26,-0.48 0.1,-0.32 0.18,-0.66 0.08,-0.36 0.18,-0.7 0.12,-0.34 0.32,-0.56 0.22,-0.24 0.56,-0.3 0.34,-0.08 0.9,0.08 0.26,0.26 0.46,0.54 0.2,0.26 0.4,0.5 0.22,0.22 0.5,0.36 0.28,0.14 0.72,0.14 -0.06,0.58 -0.18,1.3 -0.1,0.72 -0.38,1.36 -0.26,0.62 -0.78,1.04 -0.52,0.44 -1.42,0.44 -1.36,-0.06 -2.58,-0.18 -1.22,-0.1 -2.44,-0.22 -1.22,-0.12 -2.48,-0.2 -1.24,-0.08 -2.66,-0.08 -0.14,-0.44 -0.1,-0.64 0.06,-0.22 0.22,-0.3 0.18,-0.08 0.42,-0.08 0.26,0 0.52,0 0.28,-0.02 0.54,-0.08 0.26,-0.06 0.42,-0.28 0.2,-1.16 0.34,-2.5 0.16,-1.36 0.18,-2.76 0.02,-1.4 -0.14,-2.74 -0.14,-1.36 -0.52,-2.52 l -2.26,-0.7 0,0 z"
         style="stroke-width:0.03543307;stroke-miterlimit:4;stroke-dasharray:none"
         id="path6515" />
    </g>
    <g
       style="font-style:normal;font-variant:normal;font-weight:normal;font-stretch:normal;font-size:20px;line-height:125%;font-family:'My Underwood';-inkscape-font-specification:'My Underwood';letter-spacing:0px;word-spacing:0px;fill:#000000;fill-opacity:1;stroke:none;stroke-width:0.03543307;stroke-linecap:butt;stroke-linejoin:miter;stroke-opacity:1;stroke-miterlimit:4;stroke-dasharray:none"
       id="text6444">
      <path
         d="m 440.11123,528.44035 q -0.06,0.28 -0.16,0.74 -0.08,0.44 -0.14,0.96 -0.06,0.52 -0.08,1.04 -0.02,0.52 0.06,0.9 l -1.56,0.34 q -0.14,-0.38 -0.16,-0.82 0,-0.44 -0.06,-0.84 -0.06,-0.42 -0.28,-0.76 -0.2,-0.34 -0.72,-0.54 0.16,0.14 0.14,0.32 -0.02,0.18 -0.14,0.38 -0.1,0.2 -0.24,0.4 -0.14,0.2 -0.18,0.38 -0.02,0.16 0.08,0.28 0.12,0.12 0.52,0.16 -0.3,0.3 -0.4,0.66 -0.08,0.36 -0.06,0.74 0.02,0.38 0.08,0.78 0.08,0.4 0.08,0.8 0,0.4 -0.12,0.8 -0.12,0.38 -0.46,0.72 l 0.52,0.84 q -0.12,0.14 -0.34,0.3 -0.2,0.14 -0.44,0.2 -0.24,0.06 -0.5,0.02 -0.24,-0.06 -0.44,-0.34 0.06,-0.32 0.04,-0.7 0,-0.4 -0.14,-0.72 -0.12,-0.32 -0.4,-0.5 -0.26,-0.2 -0.7,-0.14 -0.6,-0.26 -0.88,-0.22 -0.28,0.02 -0.38,0.22 -0.08,0.2 -0.06,0.54 0.04,0.34 0.04,0.7 0.02,0.36 -0.06,0.68 -0.08,0.32 -0.38,0.48 -0.14,0.66 0.08,1.06 0.24,0.4 0.66,0.66 0.42,0.26 0.92,0.44 0.5,0.18 0.92,0.4 0.44,0.2 0.68,0.48 0.26,0.28 0.18,0.76 -0.98,0.06 -1.9,0.14 -0.9,0.08 -1.8,0.1 -0.88,0 -1.78,-0.08 -0.88,-0.08 -1.78,-0.32 0.04,-0.4 0.2,-0.58 0.18,-0.2 0.4,-0.28 0.24,-0.08 0.5,-0.1 0.28,-0.04 0.56,-0.12 0.28,-0.08 0.52,-0.26 0.24,-0.2 0.42,-0.58 -0.18,-0.76 -0.14,-1.62 0.06,-0.86 0.18,-1.74 0.12,-0.9 0.22,-1.78 0.1,-0.88 0.04,-1.7 -0.04,-0.82 -0.34,-1.54 -0.3,-0.72 -0.98,-1.28 l -1.58,-0.5 0.18,-0.86 q 1.5,0.12 2.98,0.02 1.48,-0.1 2.94,-0.16 1.46,-0.06 2.86,0.04 1.42,0.08 2.78,0.6 z m -3.44,1.4 q -0.3,0.08 -0.68,0.02 -0.36,-0.06 -0.74,-0.16 -0.38,-0.1 -0.76,-0.18 -0.38,-0.08 -0.72,-0.02 -0.34,0.04 -0.62,0.28 -0.28,0.22 -0.46,0.74 0.18,0.22 0.2,0.5 0.02,0.26 0,0.56 -0.02,0.28 -0.04,0.54 -0.02,0.26 0.06,0.46 0.08,0.2 0.3,0.3 0.22,0.1 0.7,0.06 l 0.68,-0.86 -0.52,-0.36 1.22,-1.36 q 0.4,0 0.74,-0.04 0.36,-0.06 0.64,0.2 l 0,-0.68 z"
         style="stroke-width:0.03543307;stroke-miterlimit:4;stroke-dasharray:none"
         id="path6512" />
    </g>
    <g
       style="font-style:normal;font-variant:normal;font-weight:normal;font-stretch:normal;font-size:20px;line-height:125%;font-family:'My Underwood';-inkscape-font-specification:'My Underwood';letter-spacing:0px;word-spacing:0px;fill:#000000;fill-opacity:1;stroke:none;stroke-width:0.03543307;stroke-linecap:butt;stroke-linejoin:miter;stroke-opacity:1;stroke-miterlimit:4;stroke-dasharray:none"
       id="text6448">
      <path
         d="m 449.30552,530.99649 q 0,0.64 0.14,1.26 0.16,0.62 0.32,1.24 0.16,0.6 0.24,1.22 0.1,0.62 -0.02,1.28 0.26,0.4 0.32,0.78 0.08,0.38 0.06,0.8 -0.02,0.4 -0.06,0.82 -0.04,0.42 0.02,0.86 -0.12,-0.06 -0.22,-0.04 -0.1,0.02 -0.2,0.1 -0.1,0.06 -0.2,0.16 -0.1,0.08 -0.22,0.14 0.34,0.22 0.42,0.38 0.08,0.16 -0.02,0.3 -0.08,0.14 -0.26,0.28 -0.16,0.14 -0.32,0.3 -0.16,0.14 -0.24,0.34 -0.06,0.18 0.06,0.44 -0.52,0.4 -1.16,0.74 -0.64,0.34 -1.34,0.52 -0.68,0.2 -1.4,0.2 -0.72,0.02 -1.44,-0.24 -0.64,-0.18 -1.1,-0.52 -0.44,-0.36 -0.78,-0.8 -0.34,-0.46 -0.62,-1 -0.28,-0.54 -0.6,-1.12 -0.08,-0.9 -0.18,-1.86 -0.1,-0.96 -0.12,-1.92 0,-0.98 0.12,-1.94 0.12,-0.98 0.5,-1.9 0.46,-0.38 0.92,-0.88 0.48,-0.5 0.98,-0.92 0.5,-0.44 1.06,-0.72 0.56,-0.28 1.2,-0.22 0.52,0.4 1.08,0.54 0.58,0.14 1.12,0.28 0.56,0.12 1.06,0.34 0.5,0.22 0.88,0.76 z m -2.92,0.16 q -0.84,-0.26 -1.4,-0.02 -0.56,0.22 -0.98,0.7 -0.4,0.46 -0.74,1.06 -0.32,0.58 -0.7,1.02 -0.46,0.64 -0.48,1.48 0,0.84 0.24,1.72 0.26,0.86 0.66,1.72 0.4,0.84 0.8,1.5 0.38,0.3 0.92,0.48 0.54,0.18 1.06,0.2 0.52,0.02 0.92,-0.14 0.42,-0.16 0.56,-0.54 -0.06,-0.26 0.06,-0.46 0.14,-0.22 0.32,-0.38 0.2,-0.18 0.4,-0.32 0.2,-0.16 0.28,-0.32 0.1,-0.16 0.02,-0.34 -0.06,-0.2 -0.4,-0.46 0.12,-0.12 0.26,-0.3 0.14,-0.2 0.28,-0.2 l 0,-3.12 q -0.28,-0.32 -0.5,-0.82 -0.2,-0.5 -0.44,-1 -0.22,-0.5 -0.5,-0.9 -0.26,-0.42 -0.64,-0.56 z"
         style="stroke-width:0.03543307;stroke-miterlimit:4;stroke-dasharray:none"
         id="path6509" />
    </g>
    <path
       inkscape:connector-curvature="0"
       id="path6452"
       d="m 452.70857,534.86218 10.79143,0"
       style="fill:none;stroke:#ff0000;stroke-width:0.03543307;stroke-miterlimit:4;stroke-dasharray:none;stroke-opacity:1" />
    <text
       sodipodi:linespacing="125%"
       id="text6454"
       y="573.55505"
       x="477.26575"
       style="font-style:normal;font-variant:normal;font-weight:normal;font-stretch:normal;font-size:20px;line-height:125%;font-family:'My Underwood';-inkscape-font-specification:'My Underwood';letter-spacing:0px;word-spacing:0px;fill:#000000;fill-opacity:1;stroke:none;stroke-width:1px;stroke-linecap:butt;stroke-linejoin:miter;stroke-opacity:1"
       xml:space="preserve"><tspan
         y="573.55505"
         x="477.26575"
         id="tspan6456"
         sodipodi:role="line">My Underwood 16pt</tspan></text>
    <text
       xml:space="preserve"
       style="font-style:normal;font-variant:normal;font-weight:normal;font-stretch:normal;font-size:12.5px;line-height:125%;font-family:'My Underwood';-inkscape-font-specification:'My Underwood';letter-spacing:0px;word-spacing:0px;fill:#000000;fill-opacity:1;stroke:none;stroke-width:1px;stroke-linecap:butt;stroke-linejoin:miter;stroke-opacity:1"
       x="507.47244"
       y="591.28931"
       id="text6458"
       sodipodi:linespacing="125%"><tspan
         sodipodi:role="line"
         id="tspan6460"
         x="507.47244"
         y="591.28931">My Underwood 16pt</tspan></text>
    <g
       style="font-style:normal;font-variant:normal;font-weight:normal;font-stretch:normal;font-size:12.5px;line-height:125%;font-family:'My Underwood';-inkscape-font-specification:'My Underwood';letter-spacing:0px;word-spacing:0px;fill:#000000;fill-opacity:1;stroke:none;stroke-width:0.03543307;stroke-linecap:butt;stroke-linejoin:miter;stroke-opacity:1;stroke-miterlimit:4;stroke-dasharray:none"
       id="text6462">
      <path
         d="m 419.54606,596.4902 q 0,-0.35 0.1625,-0.55 0.175,-0.2125 0.4375,-0.2875 0.275,-0.0875 0.6,-0.0625 0.3375,0.025 0.6625,0.1375 0.325,0.1 0.6,0.275 0.275,0.175 0.4375,0.3875 0.975,-0.725 1.825,-0.675 0.85,0.05 1.7375,0.775 0.1625,0.2125 0.175,0.425 0.025,0.2 0,0.425 -0.0125,0.225 -0.025,0.475 -0.0125,0.2375 0.075,0.5125 -0.25,0.05 -0.4875,0.1 -0.2375,0.0375 -0.4625,0.0375 -0.225,-0.0125 -0.425,-0.1125 -0.1875,-0.1 -0.35,-0.35 l -0.4375,-0.85 q -0.575,0.075 -1.0625,0.45 -0.4875,0.375 -0.6625,0.95 0.0375,0.25 0,0.575 -0.0375,0.325 -0.05,0.6875 -0.0125,0.3625 0.0625,0.7375 0.075,0.3625 0.325,0.6875 0.1625,0 0.4125,0.0125 0.2625,0.0125 0.5125,0.075 0.25,0.05 0.4375,0.1875 0.2,0.1375 0.2375,0.375 -0.1125,0.2875 -0.35,0.3375 -0.225,0.0625 -0.4875,0.05 -0.2625,-0.0125 -0.5375,-0.0125 -0.2625,0 -0.4625,0.1625 -0.325,-0.125 -0.7,-0.1375 -0.375,0 -0.775,0 -0.3875,0 -0.7875,-0.05 -0.3875,-0.0375 -0.7375,-0.25 -0.125,-0.1125 -0.075,-0.25 0.0625,-0.1375 0.1875,-0.25 0.1375,-0.125 0.2875,-0.225 0.1625,-0.1 0.2375,-0.1375 0.2,0.1625 0.2875,0.125 0.0875,-0.05 0.15,-0.15 0.075,-0.1 0.175,-0.175 0.1125,-0.0875 0.3625,-0.0125 0.1625,-0.4875 0.2125,-0.975 0.05,-0.4875 0.0375,-0.9625 -0.0125,-0.4875 -0.0625,-0.9625 -0.0375,-0.4875 -0.075,-0.9625 -0.1125,-0.1125 -0.275,-0.125 -0.15,-0.025 -0.325,0 -0.1625,0.0125 -0.3375,0.0375 -0.175,0.025 -0.325,0 -0.1375,-0.025 -0.2375,-0.125 -0.1,-0.1 -0.125,-0.35 z"
         style="stroke-width:0.03543307;stroke-miterlimit:4;stroke-dasharray:none"
         id="path6500" />
      <path
         d="m 431.92516,598.1652 q 0.05,0.325 0.025,0.7125 -0.0125,0.375 -0.0375,0.7625 -0.0125,0.375 0,0.7375 0.025,0.3625 0.15,0.6625 0.125,0.2875 0.3875,0.5125 0.275,0.2125 0.7625,0.2875 l 0.1,0.325 q -0.2875,0.2 -0.575,0.25 -0.275,0.05 -0.5625,0 -0.275,-0.05 -0.5625,-0.175 -0.275,-0.125 -0.5625,-0.2875 -0.3625,0.1625 -0.775,0.2875 -0.4125,0.125 -0.8375,0.175 -0.425,0.05 -0.85,0 -0.4125,-0.05 -0.775,-0.25 -0.5625,-0.3625 -0.8,-0.8375 -0.2375,-0.4875 -0.1875,-0.9625 0.0625,-0.4875 0.3625,-0.9125 0.3125,-0.4375 0.8375,-0.725 0.45,-0.125 0.8625,-0.125 0.425,-0.0125 0.8125,-0.025 0.4,-0.025 0.7625,-0.1375 0.3625,-0.125 0.6875,-0.4875 -0.15,-0.525 -0.4625,-0.7875 -0.3,-0.275 -0.675,-0.3625 -0.375,-0.0875 -0.7875,-0.05 -0.4,0.0375 -0.7625,0.125 -0.2,0.25 -0.225,0.525 -0.025,0.2625 -0.0625,0.5125 -0.025,0.25 -0.1625,0.475 -0.125,0.2125 -0.5375,0.3375 -0.3,-0.35 -0.4375,-0.8 -0.125,-0.45 0.125,-0.9375 0.35,-0.4625 0.8375,-0.7125 0.5,-0.25 1.025,-0.3 0.525,-0.0625 1.0375,0.0625 0.525,0.125 0.9375,0.4125 0.4125,0.2875 0.6625,0.725 0.2625,0.425 0.2625,0.9875 z m -4.225,1.6125 q -0.225,0.1375 -0.2875,0.2875 -0.05,0.1375 -0.025,0.2875 0.025,0.1375 0.1125,0.2875 0.1,0.1375 0.1875,0.275 0.0875,0.1375 0.125,0.2625 0.05,0.125 0,0.225 0.2,-0.0375 0.3875,-0.0875 0.1875,-0.05 0.3625,-0.0625 0.1875,-0.0125 0.375,0.05 0.1875,0.05 0.4,0.2125 0.275,0 0.5875,-0.1125 0.325,-0.1125 0.5875,-0.3125 0.2625,-0.2 0.4125,-0.475 0.1625,-0.2875 0.125,-0.6125 -0.1375,-0.4375 -0.35,-0.6 -0.2125,-0.1625 -0.4875,-0.15 -0.275,0 -0.5875,0.1125 -0.3125,0.1125 -0.65,0.2375 -0.325,0.1125 -0.65,0.1875 -0.325,0.075 -0.625,-0.0125 z"
         style="stroke-width:0.03543307;stroke-miterlimit:4;stroke-dasharray:none"
         id="path6502" />
      <path
         d="m 435.90036,593.5902 q 0.075,0.3625 0.15,0.7625 0.075,0.3875 0.225,0.7125 0.15,0.325 0.4125,0.525 0.2625,0.2 0.7125,0.1625 0.325,-0.175 0.6875,-0.125 0.375,0.0375 0.6125,0.4375 0,0.125 -0.075,0.225 -0.0625,0.1 -0.175,0.1875 -0.1,0.0875 -0.2125,0.175 -0.1,0.075 -0.175,0.1625 -0.1375,-0.1625 -0.3625,-0.2125 -0.225,-0.05 -0.4875,-0.025 -0.2625,0.0125 -0.5375,0.0875 -0.2625,0.0625 -0.475,0.15 0,0.4875 -0.0875,0.9875 -0.0875,0.5 -0.1375,0.9875 -0.05,0.4875 0,0.95 0.05,0.45 0.3375,0.8625 0.2,0.1625 0.4,0.2125 0.2125,0.0375 0.4,0.0125 0.2,-0.0375 0.375,-0.125 0.175,-0.1 0.3375,-0.2125 0.25,-0.2375 0.325,-0.5 0.0875,-0.275 0.175,-0.5125 0.0875,-0.25 0.2375,-0.4375 0.1625,-0.2 0.5625,-0.275 0.1625,0.3625 0.2,0.625 0.0375,0.2625 0.025,0.5125 0,0.2375 -0.025,0.5 -0.025,0.2625 0.025,0.625 -0.2,0.2 -0.5375,0.45 -0.325,0.2375 -0.7125,0.425 -0.375,0.1875 -0.7875,0.2875 -0.4125,0.1 -0.7625,0.025 -0.325,-0.1625 -0.6375,-0.3875 -0.3125,-0.225 -0.55,-0.5 -0.225,-0.2875 -0.35,-0.625 -0.125,-0.35 -0.075,-0.75 -0.0625,-0.275 -0.0375,-0.6 0.025,-0.3375 0.0625,-0.675 0.05,-0.35 0.0625,-0.6875 0.025,-0.3375 -0.0375,-0.6125 -0.0625,-0.2875 -0.25,-0.4875 -0.1875,-0.2125 -0.5625,-0.3 -0.1625,0.0875 -0.3125,0.1125 -0.15,0.025 -0.225,0.1125 l -0.1,-0.975 q 0.475,0.1875 0.75,0.1125 0.2875,-0.0875 0.45,-0.3125 0.1625,-0.2375 0.25,-0.5625 0.0875,-0.325 0.1875,-0.6375 0.1125,-0.3125 0.2625,-0.55 0.1625,-0.25 0.4625,-0.3 z"
         style="stroke-width:0.03543307;stroke-miterlimit:4;stroke-dasharray:none"
         id="path6504" />
      <path
         d="m 445.92419,597.9527 q 0.1875,0.425 0.1375,0.675 -0.0375,0.2375 -0.2375,0.35 -0.2,0.1125 -0.5125,0.1375 -0.3,0.0125 -0.625,0.0125 -0.325,-0.0125 -0.625,-0.0125 -0.3,-0.0125 -0.4875,0.0375 -0.325,0.0375 -0.675,-0.025 -0.35,-0.075 -0.7125,-0.1125 -0.35,-0.0375 -0.7125,0.0125 -0.3625,0.05 -0.725,0.325 0.075,0.4125 0.3,0.675 0.225,0.2625 0.525,0.45 0.3,0.1875 0.625,0.35 0.3375,0.1625 0.625,0.3625 0.2,-0.2 0.4125,-0.1875 0.225,0.0125 0.4125,0.0375 0.1875,0.0125 0.3125,-0.05 0.125,-0.075 0.125,-0.4375 0.2875,0.075 0.425,-0.05 0.15,-0.1375 0.275,-0.3 0.1375,-0.1625 0.325,-0.2625 0.2,-0.1 0.6,0.0625 l -0.55,1.7375 q -0.15,0 -0.3625,0.025 -0.2,0.025 -0.425,0.1 -0.2125,0.0625 -0.425,0.1875 -0.2125,0.125 -0.375,0.325 -0.375,-0.0375 -0.7875,-0.15 -0.4125,-0.1 -0.8125,-0.275 -0.4,-0.1875 -0.775,-0.45 -0.3625,-0.2625 -0.65,-0.625 -0.4,-0.9125 -0.525,-1.8 -0.125,-0.9 0.2,-1.875 0.4875,-0.575 1.0125,-0.9125 0.525,-0.3375 1.2375,-0.5875 0.6875,-0.125 1.2,0.1125 0.525,0.225 0.925,0.6125 0.4125,0.375 0.725,0.8125 0.3125,0.4375 0.6,0.7125 z m -3.35,-1.4125 q -1.0875,0.1625 -1.6125,1.3 0.375,0.125 0.8125,0.1375 0.4375,0.0125 0.9,0 0.4625,-0.025 0.9375,-0.0375 0.475,-0.025 0.925,0.0125 0,-0.3625 -0.2125,-0.6375 -0.2125,-0.2875 -0.525,-0.4625 -0.3,-0.1875 -0.6375,-0.2625 -0.3375,-0.0875 -0.5875,-0.05 z"
         style="stroke-width:0.03543307;stroke-miterlimit:4;stroke-dasharray:none"
         id="path6506" />
    </g>
    <g
       style="font-style:normal;font-variant:normal;font-weight:normal;font-stretch:normal;font-size:12.5px;line-height:125%;font-family:'My Underwood';-inkscape-font-specification:'My Underwood';letter-spacing:0px;word-spacing:0px;fill:#000000;fill-opacity:1;stroke:none;stroke-width:0.03543307;stroke-linecap:butt;stroke-linejoin:miter;stroke-opacity:1;stroke-miterlimit:4;stroke-dasharray:none"
       id="text6466">
      <path
         d="m 413.31104,687.91307 q 0.075,0.3625 0.15,0.7625 0.075,0.3875 0.225,0.7125 0.15,0.325 0.4125,0.525 0.2625,0.2 0.7125,0.1625 0.325,-0.175 0.6875,-0.125 0.375,0.0375 0.6125,0.4375 0,0.125 -0.075,0.225 -0.0625,0.1 -0.175,0.1875 -0.1,0.0875 -0.2125,0.175 -0.1,0.075 -0.175,0.1625 -0.1375,-0.1625 -0.3625,-0.2125 -0.225,-0.05 -0.4875,-0.025 -0.2625,0.0125 -0.5375,0.0875 -0.2625,0.0625 -0.475,0.15 0,0.4875 -0.0875,0.9875 -0.0875,0.5 -0.1375,0.9875 -0.05,0.4875 0,0.95 0.05,0.45 0.3375,0.8625 0.2,0.1625 0.4,0.2125 0.2125,0.0375 0.4,0.0125 0.2,-0.0375 0.375,-0.125 0.175,-0.1 0.3375,-0.2125 0.25,-0.2375 0.325,-0.5 0.0875,-0.275 0.175,-0.5125 0.0875,-0.25 0.2375,-0.4375 0.1625,-0.2 0.5625,-0.275 0.1625,0.3625 0.2,0.625 0.0375,0.2625 0.025,0.5125 0,0.2375 -0.025,0.5 -0.025,0.2625 0.025,0.625 -0.2,0.2 -0.5375,0.45 -0.325,0.2375 -0.7125,0.425 -0.375,0.1875 -0.7875,0.2875 -0.4125,0.1 -0.7625,0.025 -0.325,-0.1625 -0.6375,-0.3875 -0.3125,-0.225 -0.55,-0.5 -0.225,-0.2875 -0.35,-0.625 -0.125,-0.35 -0.075,-0.75 -0.0625,-0.275 -0.0375,-0.6 0.025,-0.3375 0.0625,-0.675 0.05,-0.35 0.0625,-0.6875 0.025,-0.3375 -0.0375,-0.6125 -0.0625,-0.2875 -0.25,-0.4875 -0.1875,-0.2125 -0.5625,-0.3 -0.1625,0.0875 -0.3125,0.1125 -0.15,0.025 -0.225,0.1125 l -0.1,-0.975 q 0.475,0.1875 0.75,0.1125 0.2875,-0.0875 0.45,-0.3125 0.1625,-0.2375 0.25,-0.5625 0.0875,-0.325 0.1875,-0.6375 0.1125,-0.3125 0.2625,-0.55 0.1625,-0.25 0.4625,-0.3 z"
         style="stroke-width:0.03543307;stroke-miterlimit:4;stroke-dasharray:none"
         id="path6497" />
    </g>
    <g
       style="font-style:normal;font-variant:normal;font-weight:normal;font-stretch:normal;font-size:12.5px;line-height:125%;font-family:'My Underwood';-inkscape-font-specification:'My Underwood';letter-spacing:0px;word-spacing:0px;fill:#000000;fill-opacity:1;stroke:none;stroke-width:0.03543307;stroke-linecap:butt;stroke-linejoin:miter;stroke-opacity:1;stroke-miterlimit:4;stroke-dasharray:none"
       id="text6470">
      <path
         d="m 450.85974,688.68866 0,3.39966 3.39966,0 0,1.0376 -3.39966,0 0,3.39965 -1.02539,0 0,-3.39965 -3.39966,0 0,-1.0376 3.39966,0 0,-3.39966 1.02539,0 z"
         style="stroke-width:0.03543307;stroke-miterlimit:4;stroke-dasharray:none"
         id="path6492" />
      <path
         d="m 461.33337,688.68866 0,3.39966 3.39966,0 0,1.0376 -3.39966,0 0,3.39965 -1.02539,0 0,-3.39965 -3.39965,0 0,-1.0376 3.39965,0 0,-3.39966 1.02539,0 z"
         style="stroke-width:0.03543307;stroke-miterlimit:4;stroke-dasharray:none"
         id="path6494" />
    </g>
  </g>
  <g
     inkscape:groupmode="layer"
     id="layer5"
     inkscape:label="Knobs outlines"
     style="display:none"
     sodipodi:insensitive="true">
    <circle
       id="path3884"
       style="display:inline;fill:none;stroke:#000000;stroke-width:0.35433072;stroke-miterlimit:4;stroke-dasharray:none;stroke-opacity:1"
       cx="432"
       cy="638.36218"
       r="26.427053" />
    <circle
       id="circle5523"
       style="display:inline;fill:none;stroke:#000000;stroke-width:0.22416133;stroke-miterlimit:4;stroke-dasharray:none;stroke-opacity:1"
       cx="432"
       cy="777.86218"
       r="16.718628" />
    <circle
       r="16.718628"
       cy="890.36218"
       cx="432"
       style="display:inline;fill:none;stroke:#000000;stroke-width:0.22416133;stroke-miterlimit:4;stroke-dasharray:none;stroke-opacity:1"
       id="circle6489" />
  </g>
</svg>
