<?xml version="1.0" encoding="UTF-8" standalone="no"?>
<!-- Created with Inkscape (http://www.inkscape.org/) -->

<svg
   xmlns:osb="http://www.openswatchbook.org/uri/2009/osb"
   xmlns:dc="http://purl.org/dc/elements/1.1/"
   xmlns:cc="http://creativecommons.org/ns#"
   xmlns:rdf="http://www.w3.org/1999/02/22-rdf-syntax-ns#"
   xmlns:svg="http://www.w3.org/2000/svg"
   xmlns="http://www.w3.org/2000/svg"
   xmlns:sodipodi="http://sodipodi.sourceforge.net/DTD/sodipodi-0.dtd"
   xmlns:inkscape="http://www.inkscape.org/namespaces/inkscape"
   width="744.09448819"
   height="1052.3622047"
   id="svg8805"
   version="1.1"
   inkscape:version="0.91 r13725"
   sodipodi:docname="1LFO_v2-1.0-4HP-panel.svg">
  <defs
     id="defs8807">
    <linearGradient
       id="linearGradient5359"
       osb:paint="solid">
      <stop
         style="stop-color:#ff0000;stop-opacity:1;"
         offset="0"
         id="stop5361" />
    </linearGradient>
  </defs>
  <sodipodi:namedview
     id="base"
     pagecolor="#ffffff"
     bordercolor="#666666"
     borderopacity="1.0"
     inkscape:pageopacity="0.0"
     inkscape:pageshadow="2"
     inkscape:zoom="2.5656566"
     inkscape:cx="432"
     inkscape:cy="317.25"
     inkscape:document-units="px"
     inkscape:current-layer="layer4"
     showgrid="true"
     inkscape:snap-center="false"
     inkscape:snap-object-midpoints="true"
     inkscape:snap-to-guides="false"
     inkscape:snap-grids="true"
     inkscape:snap-midpoints="false"
     inkscape:window-width="2140"
     inkscape:window-height="1333"
     inkscape:window-x="191"
     inkscape:window-y="11"
     inkscape:window-maximized="0"
     inkscape:snap-nodes="true"
     inkscape:snap-bbox="false"
     inkscape:snap-bbox-midpoints="true"
     inkscape:snap-global="true"
     gridtolerance="4">
    <inkscape:grid
       type="xygrid"
       id="grid8813"
       empspacing="4"
       visible="true"
       enabled="true"
       snapvisiblegridlinesonly="false"
       units="in"
       spacingx="0.025in"
       spacingy="0.025in"
       color="#f700f9"
       opacity="0.1254902"
       dotted="true" />
  </sodipodi:namedview>
  <metadata
     id="metadata8810">
    <rdf:RDF>
      <cc:Work
         rdf:about="">
        <dc:format>image/svg+xml</dc:format>
        <dc:type
           rdf:resource="http://purl.org/dc/dcmitype/StillImage" />
        <dc:title />
      </cc:Work>
    </rdf:RDF>
  </metadata>
  <g
     inkscape:label="4HP panel"
     inkscape:groupmode="layer"
     id="layer1"
     style="display:inline">
    <g
       id="g5429"
       style="stroke-width:0.35433071;stroke-miterlimit:4;stroke-dasharray:none">
      <rect
         style="fill:none;stroke:#0000ff;stroke-width:0.35433071;stroke-miterlimit:4;stroke-dasharray:none;stroke-opacity:1"
         id="rect3093"
         width="71.743401"
         height="454.5"
         x="396.1283"
         y="507.86218" />
      <circle
         id="path3097"
         style="fill:none;stroke:#0000ff;stroke-width:0.35433071;stroke-miterlimit:4;stroke-dasharray:none;stroke-opacity:1"
         cx="422.96008"
         cy="519.17468"
         r="5.625" />
      <circle
         style="fill:none;stroke:#0000ff;stroke-width:0.35433071;stroke-miterlimit:4;stroke-dasharray:none;stroke-opacity:1"
         id="path3099"
         cx="422.96008"
         cy="951.17468"
         r="5.625" />
    </g>
  </g>
  <g
     inkscape:groupmode="layer"
     id="layer3"
     inkscape:label="FP LASER HOLES"
     style="display:inline">
    <text
       xml:space="preserve"
       style="font-style:normal;font-variant:normal;font-weight:normal;font-stretch:normal;font-size:20px;line-height:125%;font-family:'Averia Sans';-inkscape-font-specification:'Averia Sans';letter-spacing:0px;word-spacing:0px;fill:#000000;fill-opacity:1;stroke:none"
       x="352.21191"
       y="792.32202"
       id="text9904"
       sodipodi:linespacing="125%"><tspan
         sodipodi:role="line"
         id="tspan9906"
         x="352.21191"
         y="792.32202" /></text>
    <ellipse
       ry="10.673117"
       rx="10.673118"
       cy="890.36218"
       cx="432"
       id="ellipse4420"
       style="display:inline;fill:none;stroke:#0000ff;stroke-width:0.35433071;stroke-miterlimit:4;stroke-dasharray:none;stroke-opacity:1" />
    <ellipse
       ry="12.247839"
       rx="12.24784"
       cy="840.86218"
       cx="432"
       id="ellipse4422"
       style="display:inline;fill:none;stroke:#0000ff;stroke-width:0.35433071;stroke-miterlimit:4;stroke-dasharray:none;stroke-opacity:1" />
    <ellipse
       style="display:inline;fill:none;stroke:#0000ff;stroke-width:0.35433071;stroke-miterlimit:4;stroke-dasharray:none;stroke-opacity:1"
       id="ellipse5434"
       cx="432"
       cy="777.86218"
       rx="10.673118"
       ry="10.673117" />
    <ellipse
       style="display:inline;fill:none;stroke:#0000ff;stroke-width:0.35433071;stroke-miterlimit:4;stroke-dasharray:none;stroke-opacity:1"
       id="ellipse5436"
       cx="432"
       cy="728.36218"
       rx="12.24784"
       ry="12.247839" />
    <ellipse
       ry="12.247839"
       rx="12.24784"
       cy="638.36218"
       cx="432"
       id="ellipse5438"
       style="display:inline;fill:none;stroke:#0000ff;stroke-width:0.35433071;stroke-miterlimit:4;stroke-dasharray:none;stroke-opacity:1" />
    <ellipse
       style="display:inline;fill:none;stroke:#0000ff;stroke-width:0.35433071;stroke-miterlimit:4;stroke-dasharray:none;stroke-opacity:1"
       id="ellipse5442"
       cx="432"
       cy="575.36218"
       rx="8.748456"
       ry="8.748457" />
    <circle
       style="display:inline;fill:none;stroke:#0000ff;stroke-width:0.30313933;stroke-miterlimit:4;stroke-dasharray:none;stroke-opacity:1"
       id="ellipse5588"
       cx="432"
       cy="692.36218"
       r="10.478352" />
  </g>
  <g
     inkscape:groupmode="layer"
     id="layer4"
     inkscape:label="Engravings"
     style="display:inline">
    <text
       xml:space="preserve"
       style="font-style:normal;font-variant:normal;font-weight:normal;font-stretch:normal;font-size:20px;line-height:125%;font-family:'Averia Sans';-inkscape-font-specification:'Averia Sans';letter-spacing:0px;word-spacing:0px;fill:#000000;fill-opacity:1;stroke:#ff0000;stroke-width:0.03543307;stroke-miterlimit:4;stroke-dasharray:none;stroke-opacity:1"
       x="345.08755"
       y="796.32947"
       id="text9913"
       sodipodi:linespacing="125%"><tspan
         sodipodi:role="line"
         id="tspan9915"
         x="345.08755"
         y="796.32947" /></text>
    <text
       xml:space="preserve"
       style="font-style:normal;font-variant:normal;font-weight:normal;font-stretch:normal;font-size:12px;line-height:125%;font-family:'C64 User';-inkscape-font-specification:'C64 User';letter-spacing:0px;word-spacing:0px;fill:#000000;fill-opacity:1;stroke:none"
       x="499.66638"
       y="626.3988"
       id="text3966"
       sodipodi:linespacing="125%"><tspan
         sodipodi:role="line"
         id="tspan3968"
         x="499.66638"
         y="626.3988" /></text>
    <path
       style="fill:none;stroke:#ff0000;stroke-width:0.35433071;stroke-miterlimit:4;stroke-dasharray:none;stroke-opacity:1"
       d="m 400.5,935.36218 63,0"
       id="path11004"
       inkscape:connector-curvature="0" />
    <path
       style="fill:none;stroke:#ff0000;stroke-width:0.35433071;stroke-miterlimit:4;stroke-dasharray:none;stroke-opacity:1"
       d="m 400.5,534.86218 63,0"
       id="path11006"
       inkscape:connector-curvature="0" />
    <text
       xml:space="preserve"
       style="font-style:normal;font-variant:normal;font-weight:normal;font-stretch:normal;font-size:15px;line-height:125%;font-family:sans-serif;-inkscape-font-specification:sans-serif;letter-spacing:0px;word-spacing:0px;fill:#000000;fill-opacity:1;stroke:none;stroke-width:1px;stroke-linecap:butt;stroke-linejoin:miter;stroke-opacity:1"
       x="371.78259"
       y="712.60486"
       id="text4491"
       sodipodi:linespacing="125%"><tspan
         sodipodi:role="line"
         id="tspan4493"
         x="371.78259"
         y="712.60486" /></text>
    <path
       style="fill:none;fill-rule:evenodd;stroke:#ff0000;stroke-width:0.35433071;stroke-linecap:butt;stroke-linejoin:miter;stroke-miterlimit:4;stroke-dasharray:none;stroke-opacity:1"
       d="m 413.9329,863.38705 36,0 0,-9 z"
       id="path4564"
       inkscape:connector-curvature="0" />
    <text
       xml:space="preserve"
       style="font-style:normal;font-variant:normal;font-weight:normal;font-stretch:normal;font-size:15px;line-height:125%;font-family:sans-serif;-inkscape-font-specification:sans-serif;letter-spacing:0px;word-spacing:0px;fill:#000000;fill-opacity:1;stroke:none;stroke-width:1px;stroke-linecap:butt;stroke-linejoin:miter;stroke-opacity:1"
       x="376.28259"
       y="730.60486"
       id="text4568"
       sodipodi:linespacing="125%"><tspan
         sodipodi:role="line"
         id="tspan4570"
         x="376.28259"
         y="730.60486" /></text>
    <path
       inkscape:connector-curvature="0"
       id="path5444"
       d="m 413.9329,750.88705 36,0 0,-9 z"
       style="fill:none;fill-rule:evenodd;stroke:#ff0000;stroke-width:0.35433071;stroke-linecap:butt;stroke-linejoin:miter;stroke-miterlimit:4;stroke-dasharray:none;stroke-opacity:1" />
    <g
       style="font-style:normal;font-variant:normal;font-weight:normal;font-stretch:normal;font-size:17.5px;line-height:125%;font-family:sans-serif;-inkscape-font-specification:sans-serif;letter-spacing:0px;word-spacing:0px;fill:none;fill-opacity:1;stroke:#ff0000;stroke-width:0.35433071;stroke-linecap:butt;stroke-linejoin:miter;stroke-miterlimit:4;stroke-dasharray:none;stroke-opacity:1"
       id="text5446">
      <path
         d="m 411.50314,550.25604 2.81983,0 0,-9.73266 -3.06763,0.61523 0,-1.57226 3.05054,-0.61524 1.72607,0 0,11.30493 2.81983,0 0,1.45264 -7.34864,0 0,-1.45264 z"
         style="stroke-width:0.35433071;stroke-miterlimit:4;stroke-dasharray:none"
         id="path5494"
         inkscape:connector-curvature="0" />
      <path
         d="m 422.19284,538.95111 1.72607,0 0,11.30493 6.21216,0 0,1.45264 -7.93823,0 0,-12.75757 z"
         style="stroke-width:0.35433071;stroke-miterlimit:4;stroke-dasharray:none"
         id="path5496"
         inkscape:connector-curvature="0" />
      <path
         d="m 431.93405,538.95111 7.33154,0 0,1.45264 -5.60546,0 0,3.75976 5.05859,0 0,1.45264 -5.05859,0 0,6.09253 -1.72608,0 0,-12.75757 z"
         style="stroke-width:0.35433071;stroke-miterlimit:4;stroke-dasharray:none"
         id="path5498"
         inkscape:connector-curvature="0" />
      <path
         d="m 447.1611,540.12177 q -1.87988,0 -2.99072,1.40136 -1.1023,1.40137 -1.1023,3.81958 0,2.40967 1.1023,3.81104 1.11084,1.40136 2.99072,1.40136 1.87989,0 2.97364,-1.40136 1.10229,-1.40137 1.10229,-3.81104 0,-2.41821 -1.10229,-3.81958 -1.09375,-1.40136 -2.97364,-1.40136 z m 0,-1.40137 q 2.68311,0 4.28955,1.80298 1.60645,1.79443 1.60645,4.81933 0,3.01636 -1.60645,4.81934 -1.60644,1.79443 -4.28955,1.79443 -2.69165,0 -4.30664,-1.79443 -1.60644,-1.79444 -1.60644,-4.81934 0,-3.0249 1.60644,-4.81933 1.61499,-1.80298 4.30664,-1.80298 z"
         style="stroke-width:0.35433071;stroke-miterlimit:4;stroke-dasharray:none"
         id="path5500"
         inkscape:connector-curvature="0" />
    </g>
    <text
       xml:space="preserve"
       style="font-style:normal;font-weight:normal;font-size:15px;line-height:125%;font-family:sans-serif;letter-spacing:0px;word-spacing:0px;fill:#000000;fill-opacity:1;stroke:none;stroke-width:1px;stroke-linecap:butt;stroke-linejoin:miter;stroke-opacity:1"
       x="267.75"
       y="660.86218"
       id="text5450"
       sodipodi:linespacing="125%"><tspan
         sodipodi:role="line"
         id="tspan5452"
         x="267.75"
         y="660.86218" /></text>
    <g
       style="font-style:normal;font-variant:normal;font-weight:normal;font-stretch:normal;font-size:12.5px;line-height:125%;font-family:sans-serif;-inkscape-font-specification:sans-serif;letter-spacing:0px;word-spacing:0px;fill:none;fill-opacity:1;stroke:#ff0000;stroke-width:0.35433071;stroke-linecap:butt;stroke-linejoin:miter;stroke-miterlimit:4;stroke-dasharray:none;stroke-opacity:1"
       id="text5454">
      <path
         d="m 424.06393,595.62677 q -0.1892,-0.10986 -0.41503,-0.15869 -0.21973,-0.0549 -0.48829,-0.0549 -0.95214,0 -1.46484,0.62256 -0.50659,0.61645 -0.50659,1.77612 l 0,3.60107 -1.12915,0 0,-6.83593 1.12915,0 0,1.06201 q 0.354,-0.62256 0.92163,-0.92163 0.56763,-0.30518 1.37939,-0.30518 0.11597,0 0.25635,0.0183 0.14038,0.0122 0.31128,0.0427 l 0.006,1.15356 z"
         style="stroke-width:0.35433071;stroke-miterlimit:4;stroke-dasharray:none"
         id="path5503"
         inkscape:connector-curvature="0" />
      <path
         d="m 428.36081,597.97662 q -1.36108,0 -1.88599,0.31128 -0.5249,0.31128 -0.5249,1.06201 0,0.59815 0.39063,0.95215 0.39672,0.3479 1.07421,0.3479 0.93384,0 1.49537,-0.65918 0.56762,-0.66528 0.56762,-1.76391 l 0,-0.25025 -1.11694,0 z m 2.23999,-0.46386 0,3.90014 -1.12305,0 0,-1.03759 q -0.38452,0.62255 -0.95825,0.92163 -0.57373,0.29296 -1.40381,0.29296 -1.0498,0 -1.67236,-0.58593 -0.61646,-0.59204 -0.61646,-1.58081 0,-1.15357 0.76905,-1.73951 0.77514,-0.58593 2.30713,-0.58593 l 1.5747,0 0,-0.10987 q 0,-0.77514 -0.51269,-1.19629 -0.50659,-0.42724 -1.42823,-0.42724 -0.58593,0 -1.14135,0.14038 -0.55542,0.14038 -1.06812,0.42114 l 0,-1.0376 q 0.61646,-0.23803 1.19629,-0.354 0.57984,-0.12207 1.12915,-0.12207 1.48316,0 2.21558,0.76904 0.73242,0.76905 0.73242,2.33155 z"
         style="stroke-width:0.35433071;stroke-miterlimit:4;stroke-dasharray:none"
         id="path5505"
         inkscape:connector-curvature="0" />
      <path
         d="m 434.05539,592.63605 0,1.94092 2.31323,0 0,0.8728 -2.31323,0 0,3.71094 q 0,0.83618 0.22583,1.07421 0.23193,0.23804 0.93384,0.23804 l 1.15356,0 0,0.93994 -1.15356,0 q -1.30005,0 -1.79444,-0.48217 -0.49438,-0.48829 -0.49438,-1.77002 l 0,-3.71094 -0.82398,0 0,-0.8728 0.82398,0 0,-1.94092 1.12915,0 z"
         style="stroke-width:0.35433071;stroke-miterlimit:4;stroke-dasharray:none"
         id="path5507"
         inkscape:connector-curvature="0" />
      <path
         d="m 443.69894,597.71417 0,0.54932 -5.16357,0 q 0.0732,1.15967 0.6958,1.77002 0.62866,0.60425 1.74561,0.60425 0.64697,0 1.25122,-0.1587 0.61035,-0.15869 1.20849,-0.47607 l 0,1.06201 q -0.60425,0.25635 -1.23901,0.39063 -0.63477,0.13427 -1.28784,0.13427 -1.63574,0 -2.594,-0.95214 -0.95215,-0.95215 -0.95215,-2.57569 0,-1.67846 0.90333,-2.66113 0.90942,-0.98877 2.4475,-0.98877 1.3794,0 2.17896,0.89111 0.80566,0.88501 0.80566,2.41089 z m -1.12304,-0.32959 q -0.0122,-0.92163 -0.5188,-1.47094 -0.50049,-0.54932 -1.33057,-0.54932 -0.93994,0 -1.50757,0.531 -0.56152,0.53101 -0.64697,1.49537 l 4.00391,-0.006 z"
         style="stroke-width:0.35433071;stroke-miterlimit:4;stroke-dasharray:none"
         id="path5509"
         inkscape:connector-curvature="0" />
    </g>
    <g
       id="g5470"
       style="stroke:#ff0000;stroke-width:0.40914585;stroke-miterlimit:4;stroke-dasharray:none;stroke-opacity:1"
       transform="matrix(1,0,0,0.75000004,0.20457293,241.71552)">
      <path
         inkscape:connector-curvature="0"
         id="path5460"
         d="m 414,750.86218 9,-9 18,18 9,-9 0,0 z"
         style="fill:none;fill-rule:evenodd;stroke:#ff0000;stroke-width:0.40914585;stroke-linecap:butt;stroke-linejoin:miter;stroke-miterlimit:4;stroke-dasharray:none;stroke-opacity:1" />
      <path
         inkscape:connector-curvature="0"
         id="path5462"
         d="m 409.5,750.86218 4.5,0"
         style="fill:none;fill-rule:evenodd;stroke:#ff0000;stroke-width:0.40914585;stroke-linecap:butt;stroke-linejoin:miter;stroke-miterlimit:4;stroke-dasharray:none;stroke-opacity:1" />
      <path
         inkscape:connector-curvature="0"
         id="path5464"
         d="m 454.5,750.86218 -4.5,0"
         style="fill:none;fill-rule:evenodd;stroke:#ff0000;stroke-width:0.40914585;stroke-linecap:butt;stroke-linejoin:miter;stroke-miterlimit:4;stroke-dasharray:none;stroke-opacity:1" />
      <path
         inkscape:connector-curvature="0"
         id="path5466"
         d="m 454.5,746.36218 -4.5,4.5"
         style="fill:none;fill-rule:evenodd;stroke:#ff0000;stroke-width:0.40914585;stroke-linecap:butt;stroke-linejoin:miter;stroke-miterlimit:4;stroke-dasharray:none;stroke-opacity:1" />
      <path
         inkscape:connector-curvature="0"
         id="path5468"
         d="m 409.5,755.36218 4.5,-4.5"
         style="fill:none;fill-rule:evenodd;stroke:#ff0000;stroke-width:0.40914585;stroke-linecap:butt;stroke-linejoin:miter;stroke-miterlimit:4;stroke-dasharray:none;stroke-opacity:1" />
    </g>
    <path
       style="fill:none;fill-rule:evenodd;stroke:#ff0000;stroke-width:0.35433071;stroke-linecap:butt;stroke-linejoin:miter;stroke-miterlimit:4;stroke-dasharray:none;stroke-opacity:1"
       d="m 414,728.36218 -9,0 0,76.5 4.5,0"
       id="path5537"
       inkscape:connector-curvature="0" />
    <path
       inkscape:connector-curvature="0"
       id="path5539"
       d="m 414.08858,840.86218 -9,0 0,76.5 4.5,0"
       style="fill:none;fill-rule:evenodd;stroke:#ff0000;stroke-width:0.35433071;stroke-linecap:butt;stroke-linejoin:miter;stroke-miterlimit:4;stroke-dasharray:none;stroke-opacity:1" />
    <g
       id="g5549"
       transform="translate(234.07593,270)"
       style="stroke-width:0.35433071;stroke-miterlimit:4;stroke-dasharray:none">
      <path
         transform="matrix(0,1,-1,0,0,0)"
         sodipodi:open="true"
         d="m 669.86628,-215.92407 a 4.4958982,8.4536753 0 0 1 4.4959,-8.45368 4.4958982,8.4536753 0 0 1 4.4959,8.45368"
         sodipodi:end="0"
         sodipodi:start="3.1415927"
         sodipodi:ry="8.4536753"
         sodipodi:rx="4.4958982"
         sodipodi:cy="-215.92407"
         sodipodi:cx="674.36218"
         sodipodi:type="arc"
         id="path5541"
         style="fill:none;fill-opacity:1;stroke:#ff0000;stroke-width:0.35433071;stroke-miterlimit:4;stroke-dasharray:none;stroke-opacity:1" />
      <path
         style="fill:none;fill-opacity:1;stroke:#ff0000;stroke-width:0.35433071;stroke-miterlimit:4;stroke-dasharray:none;stroke-opacity:1"
         id="path5543"
         sodipodi:type="arc"
         sodipodi:cx="683.354"
         sodipodi:cy="-215.92407"
         sodipodi:rx="4.4958982"
         sodipodi:ry="8.4536753"
         sodipodi:start="3.1415927"
         sodipodi:end="0"
         d="m 678.85811,-215.92407 a 4.4958982,8.4536753 0 0 1 4.49589,-8.45368 4.4958982,8.4536753 0 0 1 4.4959,8.45368"
         sodipodi:open="true"
         transform="matrix(0,1,-1,0,0,0)" />
      <path
         inkscape:connector-curvature="0"
         id="path5545"
         d="m 215.94355,669.854 0,18.00818"
         style="fill:none;fill-rule:evenodd;stroke:#ff0000;stroke-width:0.35433071;stroke-linecap:butt;stroke-linejoin:miter;stroke-miterlimit:4;stroke-dasharray:none;stroke-opacity:1" />
      <path
         inkscape:connector-curvature="0"
         id="path5547"
         d="m 207.10181,687.86218 0,-18.00818 8.84174,6.75306"
         style="fill:none;fill-rule:evenodd;stroke:#ff0000;stroke-width:0.35433071;stroke-linecap:butt;stroke-linejoin:miter;stroke-miterlimit:4;stroke-dasharray:none;stroke-opacity:1" />
    </g>
    <g
       id="g5488"
       transform="matrix(1,0,0,-1,-76.5,1834.7244)"
       style="stroke-width:0.35433071;stroke-miterlimit:4;stroke-dasharray:none;fill:none;stroke:#ff0000;stroke-opacity:1">
      <path
         inkscape:connector-curvature="0"
         id="path5484"
         d="m 486,917.36218 45,0"
         style="fill:none;fill-rule:evenodd;stroke:#ff0000;stroke-width:0.35433071;stroke-linecap:butt;stroke-linejoin:miter;stroke-miterlimit:4;stroke-dasharray:none;stroke-opacity:1" />
      <path
         inkscape:connector-curvature="0"
         id="path5486"
         d="m 486,924.11218 13.5,0 0,-13.5 18,0 0,13.5 13.5,0"
         style="fill:none;fill-rule:evenodd;stroke:#ff0000;stroke-width:0.35433071;stroke-linecap:butt;stroke-linejoin:miter;stroke-miterlimit:4;stroke-dasharray:none;stroke-opacity:1" />
    </g>
    <g
       id="g5594"
       style="fill:none;stroke:#ff0000;stroke-width:0.35433072;stroke-miterlimit:4;stroke-dasharray:none;stroke-opacity:1"
       transform="translate(-103.5,-13.499997)">
      <path
         inkscape:connector-curvature="0"
         id="path5590"
         d="m 513,701.36218 0,9"
         style="fill:none;fill-rule:evenodd;stroke:#ff0000;stroke-width:0.35433072;stroke-linecap:butt;stroke-linejoin:miter;stroke-miterlimit:4;stroke-dasharray:none;stroke-opacity:1" />
      <path
         inkscape:connector-curvature="0"
         id="path5592"
         d="m 508.5,705.86218 9,0"
         style="fill:none;fill-rule:evenodd;stroke:#ff0000;stroke-width:0.35433072;stroke-linecap:butt;stroke-linejoin:miter;stroke-miterlimit:4;stroke-dasharray:none;stroke-opacity:1" />
    </g>
  </g>
  <g
     inkscape:groupmode="layer"
     id="layer5"
     inkscape:label="Knobs outlines"
     style="display:none"
     sodipodi:insensitive="true">
    <circle
       id="path3884"
       style="display:inline;fill:none;stroke:#000000;stroke-width:0.35433072;stroke-miterlimit:4;stroke-dasharray:none;stroke-opacity:1"
       cx="432"
       cy="638.36218"
       r="26.427053" />
  </g>
</svg>
